<?xml version="1.0" encoding="utf-8"?>
<!-- Generator: Adobe Illustrator 22.1.0, SVG Export Plug-In . SVG Version: 6.00 Build 0)  -->
<svg version="1.1" id="Capa_1" xmlns="http://www.w3.org/2000/svg" xmlns:xlink="http://www.w3.org/1999/xlink" x="0px" y="0px"
	 viewBox="0 0 296.4 296.4" style="enable-background:new 0 0 296.4 296.4;" xml:space="preserve">
<style type="text/css">
	.st0{fill:#FF66CC;}
</style>
<path class="st0" d="M227.3,0H69.8c-7.7,0-13.6,4.9-13.6,12.6v269.8c0,5,2.5,9.7,6.9,12.2s9.6,2.4,13.9-0.2l71.5-49.4l71.5,49.4
	c4.3,2.6,9.2,2.7,13.6,0.2c4.4-2.5,6.6-7.1,6.6-12.2V12.6C240.2,4.9,235,0,227.3,0z M148.6,119.1c-9.8,0-35.5-18.3-35.5-36
	c0-9.8,7.9-17.7,17.7-17.7s17.7,7.9,17.7,17.7c0-9.8,7.9-17.7,17.7-17.7S184,73.2,184,83C184,100.8,158.3,119.1,148.6,119.1z"/>
</svg>
